<svg width="48" height="48" viewBox="0 0 48 48" fill="none" xmlns="http://www.w3.org/2000/svg">
<mask id="path-2-inside-1_6868_34812" fill="white">
<path fill-rule="evenodd" clip-rule="evenodd" d="M45.5567 10.229H2.15674V37.4185C2.15674 39.6276 3.9476 41.4185 6.15674 41.4185H14.0391L14.0391 44.6853C14.0391 46.0529 15.6438 46.7902 16.6814 45.8993L21.9001 41.4185H41.5567C43.7659 41.4185 45.5567 39.6276 45.5567 37.4185V10.229Z"/>
</mask>
<path fill-rule="evenodd" clip-rule="evenodd" d="M45.5567 10.229H2.15674V37.4185C2.15674 39.6276 3.9476 41.4185 6.15674 41.4185H14.0391L14.0391 44.6853C14.0391 46.0529 15.6438 46.7902 16.6814 45.8993L21.9001 41.4185H41.5567C43.7659 41.4185 45.5567 39.6276 45.5567 37.4185V10.229Z" fill="#9B4EFF"/>
<path fill-rule="evenodd" clip-rule="evenodd" d="M45.5567 10.229H2.15674V37.4185C2.15674 39.6276 3.9476 41.4185 6.15674 41.4185H14.0391L14.0391 44.6853C14.0391 46.0529 15.6438 46.7902 16.6814 45.8993L21.9001 41.4185H41.5567C43.7659 41.4185 45.5567 39.6276 45.5567 37.4185V10.229Z" fill="url(#paint0_linear_6868_34812)" fill-opacity="0.2" style="mix-blend-mode:plus-lighter"/>
<path d="M2.15674 10.229V9.629H1.55674V10.229H2.15674ZM45.5567 10.229H46.1567V9.629H45.5567V10.229ZM14.0391 41.4185L14.6391 41.4185L14.6391 40.8185H14.0391V41.4185ZM14.0391 44.6853L14.6391 44.6853L14.0391 44.6853ZM16.6814 45.8993L16.2905 45.4441L16.6814 45.8993ZM21.9001 41.4185V40.8185H21.6779L21.5093 40.9632L21.9001 41.4185ZM2.15674 10.829H45.5567V9.629H2.15674V10.829ZM2.75674 37.4185V10.229H1.55674V37.4185H2.75674ZM6.15674 40.8185C4.27897 40.8185 2.75674 39.2962 2.75674 37.4185H1.55674C1.55674 39.959 3.61622 42.0185 6.15674 42.0185V40.8185ZM14.0391 40.8185H6.15674V42.0185H14.0391V40.8185ZM14.6391 44.6853L14.6391 41.4185L13.4391 41.4185L13.4391 44.6853L14.6391 44.6853ZM16.2905 45.4441C15.642 46.0009 14.6391 45.5401 14.6391 44.6853L13.4391 44.6853C13.4391 46.5658 15.6455 47.5795 17.0722 46.3545L16.2905 45.4441ZM21.5093 40.9632L16.2905 45.4441L17.0722 46.3545L22.291 41.8737L21.5093 40.9632ZM41.5567 40.8185H21.9001V42.0185H41.5567V40.8185ZM44.9567 37.4185C44.9567 39.2962 43.4345 40.8185 41.5567 40.8185V42.0185C44.0972 42.0185 46.1567 39.959 46.1567 37.4185H44.9567ZM44.9567 10.229V37.4185H46.1567V10.229H44.9567Z" fill="#9B4EFF" mask="url(#path-2-inside-1_6868_34812)"/>
<path d="M2.15674 10.229V9.629H1.55674V10.229H2.15674ZM45.5567 10.229H46.1567V9.629H45.5567V10.229ZM14.0391 41.4185L14.6391 41.4185L14.6391 40.8185H14.0391V41.4185ZM14.0391 44.6853L14.6391 44.6853L14.0391 44.6853ZM16.6814 45.8993L16.2905 45.4441L16.6814 45.8993ZM21.9001 41.4185V40.8185H21.6779L21.5093 40.9632L21.9001 41.4185ZM2.15674 10.829H45.5567V9.629H2.15674V10.829ZM2.75674 37.4185V10.229H1.55674V37.4185H2.75674ZM6.15674 40.8185C4.27897 40.8185 2.75674 39.2962 2.75674 37.4185H1.55674C1.55674 39.959 3.61622 42.0185 6.15674 42.0185V40.8185ZM14.0391 40.8185H6.15674V42.0185H14.0391V40.8185ZM14.6391 44.6853L14.6391 41.4185L13.4391 41.4185L13.4391 44.6853L14.6391 44.6853ZM16.2905 45.4441C15.642 46.0009 14.6391 45.5401 14.6391 44.6853L13.4391 44.6853C13.4391 46.5658 15.6455 47.5795 17.0722 46.3545L16.2905 45.4441ZM21.5093 40.9632L16.2905 45.4441L17.0722 46.3545L22.291 41.8737L21.5093 40.9632ZM41.5567 40.8185H21.9001V42.0185H41.5567V40.8185ZM44.9567 37.4185C44.9567 39.2962 43.4345 40.8185 41.5567 40.8185V42.0185C44.0972 42.0185 46.1567 39.959 46.1567 37.4185H44.9567ZM44.9567 10.229V37.4185H46.1567V10.229H44.9567Z" fill="black" fill-opacity="0.2" mask="url(#path-2-inside-1_6868_34812)"/>
<path fill-rule="evenodd" clip-rule="evenodd" d="M17.9855 20.0427C18.3417 20.4503 18.2862 21.0579 17.8614 21.3998L12.4277 25.7733L17.8614 30.1468C18.2862 30.4886 18.3417 31.0963 17.9855 31.5039C17.6292 31.9115 16.996 31.9648 16.5713 31.6229L10.2206 26.5114C9.99316 26.3283 9.86182 26.0581 9.86182 25.7733C9.86182 25.4884 9.99316 25.2182 10.2206 25.0352L16.5713 19.9236C16.996 19.5817 17.6292 19.635 17.9855 20.0427Z" fill="#F4EBFF"/>
<path fill-rule="evenodd" clip-rule="evenodd" d="M30.285 20.0427C29.9288 20.4503 29.9843 21.0579 30.4091 21.3998L35.8428 25.7733L30.4091 30.1468C29.9843 30.4886 29.9288 31.0963 30.285 31.5039C30.6413 31.9115 31.2745 31.9648 31.6993 31.6229L38.0499 26.5114C38.2773 26.3283 38.4087 26.0581 38.4087 25.7733C38.4087 25.4884 38.2773 25.2182 38.0499 25.0352L31.6993 19.9236C31.2745 19.5817 30.6413 19.635 30.285 20.0427Z" fill="#F4EBFF"/>
<path fill-rule="evenodd" clip-rule="evenodd" d="M27.5563 18.9604C28.05 19.2025 28.2458 19.7828 27.9935 20.2566L22.0615 31.3972C21.8093 31.8709 21.2046 32.0588 20.7109 31.8167C20.2172 31.5746 20.0215 30.9943 20.2737 30.5205L26.2057 19.3799C26.4579 18.9062 27.0627 18.7184 27.5563 18.9604Z" fill="#F4EBFF"/>
<path d="M2.45577 9.03063C2.45577 6.98718 4.11231 5.33064 6.15577 5.33064H41.5558C43.5992 5.33064 45.2558 6.98719 45.2558 9.03065L45.2558 11.559H2.45576L2.45577 9.03063Z" fill="#4A494F"/>
<path d="M2.45577 9.03063C2.45577 6.98718 4.11231 5.33064 6.15577 5.33064H41.5558C43.5992 5.33064 45.2558 6.98719 45.2558 9.03065L45.2558 11.559H2.45576L2.45577 9.03063Z" fill="url(#paint1_linear_6868_34812)"/>
<path d="M2.45577 9.03063C2.45577 6.98718 4.11231 5.33064 6.15577 5.33064H41.5558C43.5992 5.33064 45.2558 6.98719 45.2558 9.03065L45.2558 11.559H2.45576L2.45577 9.03063Z" stroke="url(#paint2_linear_6868_34812)" stroke-width="0.6"/>
<path d="M2.45577 9.03063C2.45577 6.98718 4.11231 5.33064 6.15577 5.33064H41.5558C43.5992 5.33064 45.2558 6.98719 45.2558 9.03065L45.2558 11.559H2.45576L2.45577 9.03063Z" stroke="black" stroke-opacity="0.2" stroke-width="0.6"/>
<circle cx="8.77652" cy="8.55655" r="1.57828" fill="#D5D6DD"/>
<circle cx="13.923" cy="8.55655" r="1.57828" fill="#B3C8FF"/>
<defs>
<linearGradient id="paint0_linear_6868_34812" x1="26.4022" y1="14.5573" x2="26.4022" y2="50.3393" gradientUnits="userSpaceOnUse">
<stop stop-color="white" stop-opacity="0"/>
<stop offset="1" stop-color="white"/>
</linearGradient>
<linearGradient id="paint1_linear_6868_34812" x1="21.5803" y1="5.03064" x2="21.5803" y2="51.8106" gradientUnits="userSpaceOnUse">
<stop offset="0.45" stop-color="#8E43FF" stop-opacity="0"/>
<stop offset="1" stop-color="#8E43FF"/>
</linearGradient>
<linearGradient id="paint2_linear_6868_34812" x1="22.8379" y1="5.03064" x2="22.8379" y2="62.224" gradientUnits="userSpaceOnUse">
<stop stop-color="#4A494F"/>
<stop offset="1" stop-color="#8E43FF"/>
</linearGradient>
</defs>
</svg>
