<svg width="48" height="48" viewBox="0 0 48 48" fill="none" xmlns="http://www.w3.org/2000/svg">
<path d="M5.9668 11.274H42.0326C44.0484 11.274 45.6826 12.9081 45.6826 14.924V39.7402C45.6826 41.7561 44.0484 43.3903 42.0326 43.3903H5.9668C3.95096 43.3903 2.3168 41.7561 2.3168 39.7402V14.924C2.3168 12.9081 3.95096 11.274 5.9668 11.274Z" fill="#0674F4"/>
<path d="M5.9668 11.274H42.0326C44.0484 11.274 45.6826 12.9081 45.6826 14.924V39.7402C45.6826 41.7561 44.0484 43.3903 42.0326 43.3903H5.9668C3.95096 43.3903 2.3168 41.7561 2.3168 39.7402V14.924C2.3168 12.9081 3.95096 11.274 5.9668 11.274Z" stroke="#0674F4" stroke-width="0.7"/>
<path d="M5.9668 11.274H42.0326C44.0484 11.274 45.6826 12.9081 45.6826 14.924V39.7402C45.6826 41.7561 44.0484 43.3903 42.0326 43.3903H5.9668C3.95096 43.3903 2.3168 41.7561 2.3168 39.7402V14.924C2.3168 12.9081 3.95096 11.274 5.9668 11.274Z" stroke="black" stroke-opacity="0.2" stroke-width="0.7"/>
<mask id="path-3-inside-1_6868_34808" fill="white">
<path fill-rule="evenodd" clip-rule="evenodd" d="M14.7164 5.53687C18.7367 5.53687 22.8527 6.47616 23.8386 6.71613C24.843 6.47616 29.0357 5.53687 33.1309 5.53687C36.0457 5.53687 39.0098 6.01269 40.8386 6.37353C41.9094 6.5848 42.649 7.5348 42.649 8.62619V36.2391C42.649 38.4384 40.8661 40.2213 38.6668 40.2213H24.0603H23.6128H8.37255C6.7157 40.2213 5.37256 38.8782 5.37256 37.2213V9.08949C5.37256 7.72416 6.29491 6.53352 7.6362 6.27841C9.44449 5.93448 12.1007 5.53687 14.7164 5.53687Z"/>
</mask>
<path fill-rule="evenodd" clip-rule="evenodd" d="M14.7164 5.53687C18.7367 5.53687 22.8527 6.47616 23.8386 6.71613C24.843 6.47616 29.0357 5.53687 33.1309 5.53687C36.0457 5.53687 39.0098 6.01269 40.8386 6.37353C41.9094 6.5848 42.649 7.5348 42.649 8.62619V36.2391C42.649 38.4384 40.8661 40.2213 38.6668 40.2213H24.0603H23.6128H8.37255C6.7157 40.2213 5.37256 38.8782 5.37256 37.2213V9.08949C5.37256 7.72416 6.29491 6.53352 7.6362 6.27841C9.44449 5.93448 12.1007 5.53687 14.7164 5.53687Z" fill="#F6F6F8"/>
<path fill-rule="evenodd" clip-rule="evenodd" d="M14.7164 5.53687C18.7367 5.53687 22.8527 6.47616 23.8386 6.71613C24.843 6.47616 29.0357 5.53687 33.1309 5.53687C36.0457 5.53687 39.0098 6.01269 40.8386 6.37353C41.9094 6.5848 42.649 7.5348 42.649 8.62619V36.2391C42.649 38.4384 40.8661 40.2213 38.6668 40.2213H24.0603H23.6128H8.37255C6.7157 40.2213 5.37256 38.8782 5.37256 37.2213V9.08949C5.37256 7.72416 6.29491 6.53352 7.6362 6.27841C9.44449 5.93448 12.1007 5.53687 14.7164 5.53687Z" fill="#3999FF" style="mix-blend-mode:overlay"/>
<path fill-rule="evenodd" clip-rule="evenodd" d="M14.7164 5.53687C18.7367 5.53687 22.8527 6.47616 23.8386 6.71613C24.843 6.47616 29.0357 5.53687 33.1309 5.53687C36.0457 5.53687 39.0098 6.01269 40.8386 6.37353C41.9094 6.5848 42.649 7.5348 42.649 8.62619V36.2391C42.649 38.4384 40.8661 40.2213 38.6668 40.2213H24.0603H23.6128H8.37255C6.7157 40.2213 5.37256 38.8782 5.37256 37.2213V9.08949C5.37256 7.72416 6.29491 6.53352 7.6362 6.27841C9.44449 5.93448 12.1007 5.53687 14.7164 5.53687Z" fill="url(#paint0_linear_6868_34808)" style="mix-blend-mode:darken"/>
<path d="M23.8386 6.71613L23.6731 7.39627C23.7809 7.42251 23.8934 7.42275 24.0013 7.39696L23.8386 6.71613ZM40.8386 6.37353L40.7031 7.06029L40.8386 6.37353ZM7.6362 6.27841L7.50541 5.59074L7.6362 6.27841ZM24.0042 6.03599C23.0058 5.79299 18.8234 4.83687 14.7164 4.83687V6.23687C18.6501 6.23687 22.6995 7.15932 23.6731 7.39627L24.0042 6.03599ZM33.1309 4.83687C28.9506 4.83687 24.6926 5.79239 23.6759 6.03529L24.0013 7.39696C24.9934 7.15993 29.1207 6.23687 33.1309 6.23687V4.83687ZM40.9741 5.68677C39.1266 5.32223 36.1116 4.83687 33.1309 4.83687V6.23687C35.9798 6.23687 38.8931 6.70314 40.7031 7.06029L40.9741 5.68677ZM43.349 8.62619C43.349 7.21941 42.3912 5.96637 40.9741 5.68677L40.7031 7.06029C41.4276 7.20323 41.949 7.85018 41.949 8.62619H43.349ZM43.349 36.2391V8.62619H41.949V36.2391H43.349ZM38.6668 40.9213C41.2527 40.9213 43.349 38.825 43.349 36.2391H41.949C41.949 38.0518 40.4795 39.5213 38.6668 39.5213V40.9213ZM24.0603 40.9213H38.6668V39.5213H24.0603V40.9213ZM23.6128 40.9213H24.0603V39.5213H23.6128V40.9213ZM8.37255 40.9213H23.6128V39.5213H8.37255V40.9213ZM4.67256 37.2213C4.67256 39.2648 6.3291 40.9213 8.37255 40.9213V39.5213C7.1023 39.5213 6.07256 38.4916 6.07256 37.2213H4.67256ZM4.67256 9.08949V37.2213H6.07256V9.08949H4.67256ZM7.50541 5.59074C5.81148 5.91291 4.67256 7.41131 4.67256 9.08949H6.07256C6.07256 8.037 6.77834 7.15412 7.76699 6.96608L7.50541 5.59074ZM14.7164 4.83687C12.0382 4.83687 9.33362 5.24302 7.50541 5.59074L7.76699 6.96608C9.55535 6.62594 12.1632 6.23687 14.7164 6.23687V4.83687Z" fill="#EBF3FF" mask="url(#path-3-inside-1_6868_34808)"/>
<path d="M23.8386 6.71613L23.6731 7.39627C23.7809 7.42251 23.8934 7.42275 24.0013 7.39696L23.8386 6.71613ZM40.8386 6.37353L40.7031 7.06029L40.8386 6.37353ZM7.6362 6.27841L7.50541 5.59074L7.6362 6.27841ZM24.0042 6.03599C23.0058 5.79299 18.8234 4.83687 14.7164 4.83687V6.23687C18.6501 6.23687 22.6995 7.15932 23.6731 7.39627L24.0042 6.03599ZM33.1309 4.83687C28.9506 4.83687 24.6926 5.79239 23.6759 6.03529L24.0013 7.39696C24.9934 7.15993 29.1207 6.23687 33.1309 6.23687V4.83687ZM40.9741 5.68677C39.1266 5.32223 36.1116 4.83687 33.1309 4.83687V6.23687C35.9798 6.23687 38.8931 6.70314 40.7031 7.06029L40.9741 5.68677ZM43.349 8.62619C43.349 7.21941 42.3912 5.96637 40.9741 5.68677L40.7031 7.06029C41.4276 7.20323 41.949 7.85018 41.949 8.62619H43.349ZM43.349 36.2391V8.62619H41.949V36.2391H43.349ZM38.6668 40.9213C41.2527 40.9213 43.349 38.825 43.349 36.2391H41.949C41.949 38.0518 40.4795 39.5213 38.6668 39.5213V40.9213ZM24.0603 40.9213H38.6668V39.5213H24.0603V40.9213ZM23.6128 40.9213H24.0603V39.5213H23.6128V40.9213ZM8.37255 40.9213H23.6128V39.5213H8.37255V40.9213ZM4.67256 37.2213C4.67256 39.2648 6.3291 40.9213 8.37255 40.9213V39.5213C7.1023 39.5213 6.07256 38.4916 6.07256 37.2213H4.67256ZM4.67256 9.08949V37.2213H6.07256V9.08949H4.67256ZM7.50541 5.59074C5.81148 5.91291 4.67256 7.41131 4.67256 9.08949H6.07256C6.07256 8.037 6.77834 7.15412 7.76699 6.96608L7.50541 5.59074ZM14.7164 4.83687C12.0382 4.83687 9.33362 5.24302 7.50541 5.59074L7.76699 6.96608C9.55535 6.62594 12.1632 6.23687 14.7164 6.23687V4.83687Z" fill="black" fill-opacity="0.16" style="mix-blend-mode:multiply" mask="url(#path-3-inside-1_6868_34808)"/>
<path d="M10.0576 12.8051V5.61048C10.0576 5.28357 10.3226 5.01855 10.6495 5.01855H14.9272C15.2541 5.01855 15.5191 5.28357 15.5191 5.61048V12.8051C15.5192 12.8695 15.5021 12.9328 15.4696 12.9879C15.4371 13.043 15.3904 13.0878 15.3348 13.1174C15.2859 13.1422 15.2322 13.1554 15.1777 13.156C15.1064 13.1571 15.0367 13.1336 14.9798 13.0894L12.7883 11.4819L10.5969 13.0894C10.546 13.1267 10.4861 13.1488 10.4237 13.1535C10.3613 13.1582 10.2989 13.1451 10.2432 13.1158C10.1876 13.0864 10.1408 13.0419 10.1081 12.9872C10.0754 12.9324 10.0579 12.8694 10.0576 12.8051Z" fill="#A6D1FF"/>
<path d="M10.0576 12.8051V5.61048C10.0576 5.28357 10.3226 5.01855 10.6495 5.01855H14.9272C15.2541 5.01855 15.5191 5.28357 15.5191 5.61048V12.8051C15.5192 12.8695 15.5021 12.9328 15.4696 12.9879C15.4371 13.043 15.3904 13.0878 15.3348 13.1174C15.2859 13.1422 15.2322 13.1554 15.1777 13.156C15.1064 13.1571 15.0367 13.1336 14.9798 13.0894L12.7883 11.4819L10.5969 13.0894C10.546 13.1267 10.4861 13.1488 10.4237 13.1535C10.3613 13.1582 10.2989 13.1451 10.2432 13.1158C10.1876 13.0864 10.1408 13.0419 10.1081 12.9872C10.0754 12.9324 10.0579 12.8694 10.0576 12.8051Z" stroke="#A6D1FF" stroke-width="0.6"/>
<path d="M10.0576 12.8051V5.61048C10.0576 5.28357 10.3226 5.01855 10.6495 5.01855H14.9272C15.2541 5.01855 15.5191 5.28357 15.5191 5.61048V12.8051C15.5192 12.8695 15.5021 12.9328 15.4696 12.9879C15.4371 13.043 15.3904 13.0878 15.3348 13.1174C15.2859 13.1422 15.2322 13.1554 15.1777 13.156C15.1064 13.1571 15.0367 13.1336 14.9798 13.0894L12.7883 11.4819L10.5969 13.0894C10.546 13.1267 10.4861 13.1488 10.4237 13.1535C10.3613 13.1582 10.2989 13.1451 10.2432 13.1158C10.1876 13.0864 10.1408 13.0419 10.1081 12.9872C10.0754 12.9324 10.0579 12.8694 10.0576 12.8051Z" stroke="black" stroke-opacity="0.1" stroke-width="0.6"/>
<g style="mix-blend-mode:multiply">
<path d="M42.649 37.2214V9.10024C42.649 7.7299 41.7205 6.53646 40.3736 6.28411C38.5311 5.93889 35.8101 5.53687 33.1309 5.53687C28.4359 5.53687 23.6128 6.77142 23.6128 6.77142V40.2214H39.649C41.3058 40.2214 42.649 38.8783 42.649 37.2214Z" fill="#F6F6F8"/>
</g>
<path d="M18.8388 20.9892C19.2135 20.6813 19.2631 20.1324 18.9481 19.7644C18.6344 19.3978 18.0784 19.3504 17.7051 19.6572L12.8677 23.6336C12.6674 23.7982 12.551 24.0419 12.551 24.2996C12.551 24.5572 12.6674 24.8009 12.8677 24.9656L17.7051 28.9419C18.0784 29.2487 18.6344 29.2013 18.9481 28.8348C19.2631 28.4668 19.2135 27.9179 18.8388 27.6099L14.8117 24.2996L18.8388 20.9892Z" fill="#4DA6FE" stroke="#4DA6FE" stroke-width="0.237784"/>
<path d="M29.1866 20.9892C28.8119 20.6813 28.7623 20.1324 29.0773 19.7644C29.391 19.3978 29.947 19.3504 30.3203 19.6572L35.1577 23.6336C35.358 23.7982 35.4744 24.0419 35.4744 24.2996C35.4744 24.5572 35.358 24.8009 35.1577 24.9656L30.3203 28.9419C29.947 29.2487 29.391 29.2013 29.0773 28.8348C28.7623 28.4668 28.8119 27.9179 29.1866 27.6099L33.2137 24.2996L29.1866 20.9892Z" fill="#4DA6FE" stroke="#4DA6FE" stroke-width="0.237784"/>
<path d="M27.0574 20.0625C27.2808 19.6338 27.1064 19.1104 26.6722 18.8929C26.2393 18.6761 25.7075 18.8433 25.4847 19.2706L20.9663 27.9369C20.7428 28.3656 20.9172 28.889 21.3514 29.1065C21.7844 29.3233 22.3162 29.1561 22.5389 28.7288L27.0574 20.0625Z" fill="#4DA6FE" stroke="#4DA6FE" stroke-width="0.237784"/>
<defs>
<linearGradient id="paint0_linear_6868_34808" x1="24.0108" y1="3.76878" x2="24.0108" y2="111.081" gradientUnits="userSpaceOnUse">
<stop stop-color="white" stop-opacity="0"/>
<stop offset="0.967299" stop-color="#0674F4"/>
</linearGradient>
</defs>
</svg>
