<svg width="48" height="48" viewBox="0 0 48 48" fill="none" xmlns="http://www.w3.org/2000/svg">
<path d="M21.6658 37.7209C30.5753 37.7209 37.7978 30.4984 37.7978 21.5889C37.7978 12.6794 30.5753 5.45679 21.6658 5.45679C12.7563 5.45679 5.53369 12.6794 5.53369 21.5889C5.53369 30.4984 12.7563 37.7209 21.6658 37.7209Z" fill="url(#paint0_linear_6868_34809)"/>
<path d="M28.5235 22.9364L20.0836 17.3717L11.7216 28.4619" stroke="#FFB300" stroke-width="2"/>
<path d="M28.5235 22.9364L20.0836 17.3717L11.7216 28.4619" stroke="#FF9861" stroke-opacity="0.1" stroke-width="2" style="mix-blend-mode:plus-darker"/>
<circle cx="29.4807" cy="23.4645" r="2.90977" transform="rotate(170.253 29.4807 23.4645)" fill="#FFD52E" stroke="#FFC002" stroke-width="0.6"/>
<circle cx="11.8457" cy="28.7754" r="2.90826" transform="rotate(170.253 11.8457 28.7754)" fill="#FFD52E" stroke="#FFC002" stroke-width="0.6"/>
<circle cx="19.9158" cy="17.8758" r="3.83148" transform="rotate(170.253 19.9158 17.8758)" fill="#FFD52E" stroke="#FFC002" stroke-width="0.6"/>
<rect x="30.8379" y="33.7833" width="3.7805" height="8.93327" transform="rotate(-45 30.8379 33.7833)" fill="#C2C3CD"/>
<rect x="30.8379" y="33.7833" width="3.7805" height="8.93327" transform="rotate(-45 30.8379 33.7833)" stroke="#C2C3CD" stroke-width="0.6"/>
<rect x="30.8379" y="33.7833" width="3.7805" height="8.93327" transform="rotate(-45 30.8379 33.7833)" stroke="black" stroke-opacity="0.2" stroke-width="0.6"/>
<path d="M34.7355 39.1148C34.5237 38.903 34.5237 38.5596 34.7355 38.3478L38.0784 35.0049C38.2902 34.7931 38.6336 34.7931 38.8454 35.0049L42.5345 38.694C43.6695 39.8289 43.6695 41.669 42.5345 42.8039C41.3996 43.9388 39.5595 43.9388 38.4246 42.8039L34.7355 39.1148Z" fill="#4A494F"/>
<path d="M34.7355 39.1148C34.5237 38.903 34.5237 38.5596 34.7355 38.3478L38.0784 35.0049C38.2902 34.7931 38.6336 34.7931 38.8454 35.0049L42.5345 38.694C43.6695 39.8289 43.6695 41.669 42.5345 42.8039C41.3996 43.9388 39.5595 43.9388 38.4246 42.8039L34.7355 39.1148Z" stroke="#4A494F" stroke-width="0.6"/>
<path d="M34.7355 39.1148C34.5237 38.903 34.5237 38.5596 34.7355 38.3478L38.0784 35.0049C38.2902 34.7931 38.6336 34.7931 38.8454 35.0049L42.5345 38.694C43.6695 39.8289 43.6695 41.669 42.5345 42.8039C41.3996 43.9388 39.5595 43.9388 38.4246 42.8039L34.7355 39.1148Z" stroke="black" stroke-opacity="0.2" stroke-width="0.6"/>
<mask id="path-9-inside-1_6868_34809" fill="white">
<path fill-rule="evenodd" clip-rule="evenodd" d="M34.8805 34.8005C42.1776 27.5034 42.1776 15.6724 34.8805 8.37531C27.5834 1.07819 15.7524 1.07819 8.45526 8.37531C1.15814 15.6724 1.15814 27.5034 8.45526 34.8005C15.7524 42.0977 27.5834 42.0977 34.8805 34.8005ZM35.1843 21.5888C35.1843 29.0541 29.1324 35.106 21.6671 35.106C14.2018 35.106 8.14999 29.0541 8.14999 21.5888C8.14999 14.1235 14.2018 8.0717 21.6671 8.0717C29.1324 8.0717 35.1843 14.1235 35.1843 21.5888Z"/>
</mask>
<path fill-rule="evenodd" clip-rule="evenodd" d="M34.8805 34.8005C42.1776 27.5034 42.1776 15.6724 34.8805 8.37531C27.5834 1.07819 15.7524 1.07819 8.45526 8.37531C1.15814 15.6724 1.15814 27.5034 8.45526 34.8005C15.7524 42.0977 27.5834 42.0977 34.8805 34.8005ZM35.1843 21.5888C35.1843 29.0541 29.1324 35.106 21.6671 35.106C14.2018 35.106 8.14999 29.0541 8.14999 21.5888C8.14999 14.1235 14.2018 8.0717 21.6671 8.0717C29.1324 8.0717 35.1843 14.1235 35.1843 21.5888Z" fill="url(#paint1_linear_6868_34809)"/>
<path d="M34.8805 8.37531L35.3047 7.95104L34.8805 8.37531ZM8.45526 8.37531L8.031 7.95104L8.45526 8.37531ZM34.4562 8.79957C41.519 15.8624 41.519 27.3135 34.4562 34.3763L35.3047 35.2248C42.8362 27.6934 42.8362 15.4825 35.3047 7.95104L34.4562 8.79957ZM8.87953 8.79957C15.9423 1.73676 27.3934 1.73676 34.4562 8.79957L35.3047 7.95104C27.7733 0.419606 15.5624 0.419606 8.031 7.95104L8.87953 8.79957ZM8.87953 34.3763C1.81672 27.3135 1.81672 15.8624 8.87953 8.79957L8.031 7.95104C0.499562 15.4825 0.499562 27.6934 8.031 35.2248L8.87953 34.3763ZM34.4562 34.3763C27.3934 41.4391 15.9423 41.4391 8.87953 34.3763L8.031 35.2248C15.5624 42.7562 27.7733 42.7562 35.3047 35.2248L34.4562 34.3763ZM21.6671 35.706C29.4638 35.706 35.7843 29.3855 35.7843 21.5888H34.5843C34.5843 28.7228 28.8011 34.506 21.6671 34.506V35.706ZM7.54999 21.5888C7.54999 29.3855 13.8704 35.706 21.6671 35.706V34.506C14.5332 34.506 8.74999 28.7228 8.74999 21.5888H7.54999ZM21.6671 7.4717C13.8704 7.4717 7.54999 13.7922 7.54999 21.5888H8.74999C8.74999 14.4549 14.5332 8.6717 21.6671 8.6717V7.4717ZM35.7843 21.5888C35.7843 13.7922 29.4638 7.4717 21.6671 7.4717V8.6717C28.8011 8.6717 34.5843 14.4549 34.5843 21.5888H35.7843Z" fill="#888893" mask="url(#path-9-inside-1_6868_34809)"/>
<path d="M34.8805 8.37531L35.3047 7.95104L34.8805 8.37531ZM8.45526 8.37531L8.031 7.95104L8.45526 8.37531ZM34.4562 8.79957C41.519 15.8624 41.519 27.3135 34.4562 34.3763L35.3047 35.2248C42.8362 27.6934 42.8362 15.4825 35.3047 7.95104L34.4562 8.79957ZM8.87953 8.79957C15.9423 1.73676 27.3934 1.73676 34.4562 8.79957L35.3047 7.95104C27.7733 0.419606 15.5624 0.419606 8.031 7.95104L8.87953 8.79957ZM8.87953 34.3763C1.81672 27.3135 1.81672 15.8624 8.87953 8.79957L8.031 7.95104C0.499562 15.4825 0.499562 27.6934 8.031 35.2248L8.87953 34.3763ZM34.4562 34.3763C27.3934 41.4391 15.9423 41.4391 8.87953 34.3763L8.031 35.2248C15.5624 42.7562 27.7733 42.7562 35.3047 35.2248L34.4562 34.3763ZM21.6671 35.706C29.4638 35.706 35.7843 29.3855 35.7843 21.5888H34.5843C34.5843 28.7228 28.8011 34.506 21.6671 34.506V35.706ZM7.54999 21.5888C7.54999 29.3855 13.8704 35.706 21.6671 35.706V34.506C14.5332 34.506 8.74999 28.7228 8.74999 21.5888H7.54999ZM21.6671 7.4717C13.8704 7.4717 7.54999 13.7922 7.54999 21.5888H8.74999C8.74999 14.4549 14.5332 8.6717 21.6671 8.6717V7.4717ZM35.7843 21.5888C35.7843 13.7922 29.4638 7.4717 21.6671 7.4717V8.6717C28.8011 8.6717 34.5843 14.4549 34.5843 21.5888H35.7843Z" fill="black" fill-opacity="0.2" mask="url(#path-9-inside-1_6868_34809)"/>
<defs>
<linearGradient id="paint0_linear_6868_34809" x1="21.6658" y1="-4.83511" x2="21.6658" y2="37.7209" gradientUnits="userSpaceOnUse">
<stop stop-color="#FBFBFB"/>
<stop offset="1" stop-color="#FBFBFB" stop-opacity="0"/>
</linearGradient>
<linearGradient id="paint1_linear_6868_34809" x1="14.7221" y1="-6.28655" x2="14.7221" y2="48.1748" gradientUnits="userSpaceOnUse">
<stop stop-color="#66666E"/>
<stop offset="1" stop-color="#888893"/>
</linearGradient>
</defs>
</svg>
