<svg width="48" height="48" viewBox="0 0 48 48" fill="none" xmlns="http://www.w3.org/2000/svg">
<g clip-path="url(#clip0_6868_34813)">
<path d="M40.5047 39.8601C40.5047 41.6274 39.072 43.0601 37.3047 43.0601L14.4602 43.0601L7.80469 43.0601C6.03738 43.0601 4.60469 41.6274 4.60469 39.8601L4.60469 35.1967L4.60469 8.57104C4.60469 6.80373 6.03738 5.37104 7.80469 5.37105L37.3047 5.37105C39.072 5.37105 40.5047 6.80374 40.5047 8.57105L40.5047 39.8601Z" fill="#0674F4"/>
<path d="M40.5047 39.8601C40.5047 41.6274 39.072 43.0601 37.3047 43.0601L14.4602 43.0601L7.80469 43.0601C6.03738 43.0601 4.60469 41.6274 4.60469 39.8601L4.60469 35.1967L4.60469 8.57104C4.60469 6.80373 6.03738 5.37104 7.80469 5.37105L37.3047 5.37105C39.072 5.37105 40.5047 6.80374 40.5047 8.57105L40.5047 39.8601Z" fill="url(#paint0_linear_6868_34813)"/>
<path d="M40.5047 39.8601C40.5047 41.6274 39.072 43.0601 37.3047 43.0601L14.4602 43.0601L7.80469 43.0601C6.03738 43.0601 4.60469 41.6274 4.60469 39.8601L4.60469 35.1967L4.60469 8.57104C4.60469 6.80373 6.03738 5.37104 7.80469 5.37105L37.3047 5.37105C39.072 5.37105 40.5047 6.80374 40.5047 8.57105L40.5047 39.8601Z" fill="white" fill-opacity="0.2" style="mix-blend-mode:overlay"/>
<path d="M40.5047 39.8601C40.5047 41.6274 39.072 43.0601 37.3047 43.0601L14.4602 43.0601L7.80469 43.0601C6.03738 43.0601 4.60469 41.6274 4.60469 39.8601L4.60469 35.1967L4.60469 8.57104C4.60469 6.80373 6.03738 5.37104 7.80469 5.37105L37.3047 5.37105C39.072 5.37105 40.5047 6.80374 40.5047 8.57105L40.5047 39.8601Z" stroke="#1790FF" stroke-width="0.6"/>
<path d="M40.5047 39.8601C40.5047 41.6274 39.072 43.0601 37.3047 43.0601L14.4602 43.0601L7.80469 43.0601C6.03738 43.0601 4.60469 41.6274 4.60469 39.8601L4.60469 35.1967L4.60469 8.57104C4.60469 6.80373 6.03738 5.37104 7.80469 5.37105L37.3047 5.37105C39.072 5.37105 40.5047 6.80374 40.5047 8.57105L40.5047 39.8601Z" stroke="black" stroke-opacity="0.2" stroke-width="0.6"/>
<path fill-rule="evenodd" clip-rule="evenodd" d="M28.2276 14.268C28.3197 13.988 28.7158 13.988 28.8079 14.268L29.4018 16.0739C29.4321 16.166 29.5044 16.2383 29.5965 16.2686L31.4024 16.8625C31.6824 16.9546 31.6824 17.3507 31.4024 17.4428L29.5965 18.0367C29.5044 18.067 29.4321 18.1393 29.4018 18.2314L28.8079 20.0373C28.7158 20.3173 28.3197 20.3173 28.2276 20.0373L27.6337 18.2314C27.6034 18.1393 27.5311 18.067 27.439 18.0367L25.6331 17.4428C25.3531 17.3507 25.3531 16.9546 25.6331 16.8625L27.439 16.2686C27.5311 16.2383 27.6034 16.166 27.6337 16.0739L28.2276 14.268ZM28.6102 21.2693C29.2312 21.2693 29.7347 21.7728 29.7347 22.3939V28.6902C29.7347 29.3113 29.2312 29.8148 28.6102 29.8148C27.9891 29.8148 27.4856 29.3113 27.4856 28.6902V22.3939C27.4856 21.7728 27.9891 21.2693 28.6102 21.2693ZM14.3061 29.8505C14.7828 29.8505 15.2071 29.5482 15.3629 29.0977L16.455 25.9381H22.2261L23.3174 29.0954C23.4736 29.5473 23.8992 29.8505 24.3774 29.8505C25.1539 29.8505 25.6954 29.0805 25.4328 28.3497L21.091 16.268C20.8261 15.5311 20.1273 15.0396 19.3442 15.0396C18.561 15.0396 17.8622 15.5311 17.5973 16.268L13.2539 28.3542C12.992 29.0828 13.5319 29.8505 14.3061 29.8505ZM21.5752 24.0505H17.1059L19.2827 17.7443H19.3984L21.5752 24.0505Z" fill="#EBF3FF"/>
<path d="M7.55912 43.1121L39.695 43.1121C40.0671 43.1121 40.4417 43.063 40.7752 42.8514C41.5054 42.3879 43.1478 40.5249 42.7463 37.0698L10.9374 37.0698C10.9374 39.7838 10.1408 42.1598 8.87905 42.8514C8.40342 43.1121 7.86988 43.0916 7.55912 43.1076L7.55912 43.1121Z" fill="#F6F6F8"/>
<path d="M7.55912 43.1121L39.695 43.1121C40.0671 43.1121 40.4417 43.063 40.7752 42.8514C41.5054 42.3879 43.1478 40.5249 42.7463 37.0698L10.9374 37.0698C10.9374 39.7838 10.1408 42.1598 8.87905 42.8514C8.40342 43.1121 7.86988 43.0916 7.55912 43.1076L7.55912 43.1121Z" fill="url(#paint1_linear_6868_34813)" fill-opacity="0.6" style="mix-blend-mode:plus-darker"/>
<path d="M7.55912 43.1121L39.695 43.1121C40.0671 43.1121 40.4417 43.063 40.7752 42.8514C41.5054 42.3879 43.1478 40.5249 42.7463 37.0698L10.9374 37.0698C10.9374 39.7838 10.1408 42.1598 8.87905 42.8514C8.40342 43.1121 7.86988 43.0916 7.55912 43.1076L7.55912 43.1121Z" stroke="#85C2FF" stroke-width="0.486351" stroke-linejoin="round"/>
<path d="M7.55912 43.1121L39.695 43.1121C40.0671 43.1121 40.4417 43.063 40.7752 42.8514C41.5054 42.3879 43.1478 40.5249 42.7463 37.0698L10.9374 37.0698C10.9374 39.7838 10.1408 42.1598 8.87905 42.8514C8.40342 43.1121 7.86988 43.0916 7.55912 43.1076L7.55912 43.1121Z" stroke="url(#paint2_linear_6868_34813)" stroke-opacity="0.3" stroke-width="0.486351" stroke-linejoin="round" style="mix-blend-mode:plus-darker"/>
<path d="M33.6582 24.7644L36.2839 22.1387L37.6992 23.554L35.0735 26.1797L33.6582 24.7644Z" fill="#DDDEE4"/>
<path d="M33.6582 24.7644L36.2839 22.1387L37.6992 23.554L35.0735 26.1797L33.6582 24.7644Z" stroke="#DDDEE4" stroke-width="0.6"/>
<path d="M33.6582 24.7644L36.2839 22.1387L37.6992 23.554L35.0735 26.1797L33.6582 24.7644Z" stroke="black" stroke-opacity="0.2" stroke-width="0.6"/>
<path d="M33.6457 24.7492L32.0298 23.1342C31.6488 22.7533 31.6487 22.1357 32.0297 21.7547L33.2757 20.5088C33.6565 20.128 34.2739 20.1279 34.6548 20.5086L36.271 22.124L33.6457 24.7492Z" fill="#333236"/>
<path d="M33.6457 24.7492L32.0298 23.1342C31.6488 22.7533 31.6487 22.1357 32.0297 21.7547L33.2757 20.5088C33.6565 20.128 34.2739 20.1279 34.6548 20.5086L36.271 22.124L33.6457 24.7492Z" stroke="#333236" stroke-width="0.6"/>
<path d="M33.6457 24.7492L32.0298 23.1342C31.6488 22.7533 31.6487 22.1357 32.0297 21.7547L33.2757 20.5088C33.6565 20.128 34.2739 20.1279 34.6548 20.5086L36.271 22.124L33.6457 24.7492Z" stroke="black" stroke-opacity="0.2" stroke-width="0.6"/>
<path d="M37.6995 23.5504L47.1317 32.9825C47.8573 33.7081 47.8573 34.8846 47.1316 35.6101C46.406 36.3356 45.2297 36.3355 44.5042 35.61L35.0718 26.1777L37.6995 23.5504Z" fill="#4A494F"/>
<path d="M37.6995 23.5504L47.1317 32.9825C47.8573 33.7081 47.8573 34.8846 47.1316 35.6101C46.406 36.3356 45.2297 36.3355 44.5042 35.61L35.0718 26.1777L37.6995 23.5504Z" stroke="#4A494F" stroke-width="0.6"/>
<path d="M37.6995 23.5504L47.1317 32.9825C47.8573 33.7081 47.8573 34.8846 47.1316 35.6101C46.406 36.3356 45.2297 36.3355 44.5042 35.61L35.0718 26.1777L37.6995 23.5504Z" stroke="black" stroke-opacity="0.2" stroke-width="0.6"/>
</g>
<defs>
<linearGradient id="paint0_linear_6868_34813" x1="4.30469" y1="54.9228" x2="4.30469" y2="-23.1717" gradientUnits="userSpaceOnUse">
<stop stop-color="#C189FF" stop-opacity="0"/>
<stop offset="1" stop-color="#C189FF"/>
</linearGradient>
<linearGradient id="paint1_linear_6868_34813" x1="24.7665" y1="90.8684" x2="24.7665" y2="28.3735" gradientUnits="userSpaceOnUse">
<stop stop-color="#85C2FF" stop-opacity="0"/>
<stop offset="1" stop-color="#85C2FF"/>
</linearGradient>
<linearGradient id="paint2_linear_6868_34813" x1="30.1099" y1="47.1067" x2="28.4071" y2="36.0382" gradientUnits="userSpaceOnUse">
<stop stop-opacity="0.5"/>
<stop offset="1"/>
</linearGradient>
<clipPath id="clip0_6868_34813">
<rect x="0.00341797" width="47.999" height="47.999" rx="4.50167" fill="white"/>
</clipPath>
</defs>
</svg>
