<svg width="48" height="48" viewBox="0 0 48 48" fill="none" xmlns="http://www.w3.org/2000/svg">
<g clip-path="url(#clip0_6868_34811)">
<path d="M2.38321 21.319L2.38321 21.319C4.11376 8.57547 16.8964 0.60267 29.1021 4.65384L29.1022 4.65385C37.826 7.54841 43.6042 16.1539 42.977 25.3237C42.8184 27.6407 42.2924 29.8051 41.4709 31.7855L41.4709 31.7856C40.4621 34.2194 37.1375 34.5064 35.747 32.2771C33.7698 29.1071 29.5977 28.1403 26.4277 30.1175C23.2576 32.0947 22.2908 36.2668 24.268 39.4368C25.6584 41.6661 23.9383 44.5256 21.3089 44.361L21.3088 44.361C19.1689 44.2277 16.9938 43.748 14.8432 42.8713C6.33243 39.4002 1.14547 30.4268 2.38321 21.319Z" fill="#FFCB02"/>
<path d="M2.38321 21.319L2.38321 21.319C4.11376 8.57547 16.8964 0.60267 29.1021 4.65384L29.1022 4.65385C37.826 7.54841 43.6042 16.1539 42.977 25.3237C42.8184 27.6407 42.2924 29.8051 41.4709 31.7855L41.4709 31.7856C40.4621 34.2194 37.1375 34.5064 35.747 32.2771C33.7698 29.1071 29.5977 28.1403 26.4277 30.1175C23.2576 32.0947 22.2908 36.2668 24.268 39.4368C25.6584 41.6661 23.9383 44.5256 21.3089 44.361L21.3088 44.361C19.1689 44.2277 16.9938 43.748 14.8432 42.8713C6.33243 39.4002 1.14547 30.4268 2.38321 21.319Z" fill="url(#paint0_linear_6868_34811)" fill-opacity="0.2" style="mix-blend-mode:plus-lighter"/>
<path d="M2.38321 21.319L2.38321 21.319C4.11376 8.57547 16.8964 0.60267 29.1021 4.65384L29.1022 4.65385C37.826 7.54841 43.6042 16.1539 42.977 25.3237C42.8184 27.6407 42.2924 29.8051 41.4709 31.7855L41.4709 31.7856C40.4621 34.2194 37.1375 34.5064 35.747 32.2771C33.7698 29.1071 29.5977 28.1403 26.4277 30.1175C23.2576 32.0947 22.2908 36.2668 24.268 39.4368C25.6584 41.6661 23.9383 44.5256 21.3089 44.361L21.3088 44.361C19.1689 44.2277 16.9938 43.748 14.8432 42.8713C6.33243 39.4002 1.14547 30.4268 2.38321 21.319Z" stroke="#FFC002" stroke-width="0.620824"/>
<path d="M2.38321 21.319L2.38321 21.319C4.11376 8.57547 16.8964 0.60267 29.1021 4.65384L29.1022 4.65385C37.826 7.54841 43.6042 16.1539 42.977 25.3237C42.8184 27.6407 42.2924 29.8051 41.4709 31.7855L41.4709 31.7856C40.4621 34.2194 37.1375 34.5064 35.747 32.2771C33.7698 29.1071 29.5977 28.1403 26.4277 30.1175C23.2576 32.0947 22.2908 36.2668 24.268 39.4368C25.6584 41.6661 23.9383 44.5256 21.3089 44.361L21.3088 44.361C19.1689 44.2277 16.9938 43.748 14.8432 42.8713C6.33243 39.4002 1.14547 30.4268 2.38321 21.319Z" stroke="black" stroke-opacity="0.06" stroke-width="0.620824" style="mix-blend-mode:plus-darker"/>
<path d="M12.5022 28.6789C14.0315 28.7584 15.2067 30.0626 15.1272 31.5919C15.0477 33.1211 13.7435 34.2964 12.2142 34.2168C10.685 34.1373 9.50973 32.8331 9.58927 31.3039C9.6688 29.7746 10.973 28.5994 12.5022 28.6789Z" fill="#FEFFBF" stroke="#FEFFBF" stroke-width="0.620824"/>
<path d="M10.6722 18.6871C12.2014 18.7666 13.3767 20.0708 13.2971 21.6001C13.2176 23.1293 11.9134 24.3046 10.3842 24.225C8.85489 24.1455 7.67965 22.8413 7.75919 21.312C7.83872 19.7828 9.14291 18.6075 10.6722 18.6871Z" fill="#FEFFBF" stroke="#FEFFBF" stroke-width="0.620824"/>
<path d="M17.0833 10.2658C18.6126 10.3453 19.7878 11.6495 19.7083 13.1788C19.6287 14.708 18.3245 15.8833 16.7953 15.8038C15.266 15.7242 14.0908 14.42 14.1703 12.8908C14.2499 11.3615 15.554 10.1863 17.0833 10.2658Z" fill="#FFEB38" stroke="#FFEB38" stroke-width="0.620824"/>
<path d="M27.9134 9.18402C29.4426 9.26355 30.6179 10.5677 30.5383 12.097C30.4588 13.6263 29.1546 14.8015 27.6254 14.722C26.0961 14.6424 24.9209 13.3382 25.0004 11.809C25.0799 10.2797 26.3841 9.10448 27.9134 9.18402Z" fill="#FFEB38" stroke="#FFEB38" stroke-width="0.620824"/>
<path d="M34.9891 16.6954C36.5183 16.7749 37.6936 18.0791 37.614 19.6084C37.5345 21.1376 36.2303 22.3129 34.701 22.2333C33.1718 22.1538 31.9965 20.8496 32.0761 19.3203C32.1556 17.7911 33.4598 16.6158 34.9891 16.6954Z" fill="#FFEB38" stroke="#FFEB38" stroke-width="0.620824"/>
<path d="M40.6117 9.03848C41.1993 7.68188 42.7753 7.05843 44.1319 7.64596C45.4885 8.23349 46.1119 9.80952 45.5244 11.1661L38.5318 27.312L35.8091 26.6586L33.6182 25.1865L40.6117 9.03848Z" fill="#4A494F"/>
<path d="M40.6117 9.03848C41.1993 7.68188 42.7753 7.05843 44.1319 7.64596C45.4885 8.23349 46.1119 9.80952 45.5244 11.1661L38.5318 27.312L35.8091 26.6586L33.6182 25.1865L40.6117 9.03848Z" fill="url(#paint1_linear_6868_34811)" fill-opacity="0.3" style="mix-blend-mode:overlay"/>
<path d="M40.6117 9.03848C41.1993 7.68188 42.7753 7.05843 44.1319 7.64596C45.4885 8.23349 46.1119 9.80952 45.5244 11.1661L38.5318 27.312L35.8091 26.6586L33.6182 25.1865L40.6117 9.03848Z" stroke="#4A494F" stroke-width="0.563687"/>
<path d="M40.6117 9.03848C41.1993 7.68188 42.7753 7.05843 44.1319 7.64596C45.4885 8.23349 46.1119 9.80952 45.5244 11.1661L38.5318 27.312L35.8091 26.6586L33.6182 25.1865L40.6117 9.03848Z" stroke="black" stroke-opacity="0.1" stroke-width="0.563687"/>
<path fill-rule="evenodd" clip-rule="evenodd" d="M29.1373 43.755C28.9886 43.8799 28.7821 43.91 28.604 43.8329L28.5073 43.791L28.2413 43.6758L28.1446 43.6339C27.9664 43.5567 27.8472 43.3855 27.8365 43.1917L27.3337 34.0291C27.3207 33.7928 27.4726 33.5805 27.6936 33.4957C29.956 32.6274 31.4029 30.3558 32.0202 28.9243C32.1387 28.6494 32.4561 28.5094 32.7308 28.6284L34.4379 29.3677L34.704 29.4829L36.4112 30.2223C36.6858 30.3413 36.8008 30.6685 36.6814 30.943C36.0597 32.3726 35.3926 34.982 36.3071 37.2261C36.3964 37.4454 36.3455 37.7013 36.1642 37.8536L29.1373 43.755Z" fill="#DDDEE4"/>
<path fill-rule="evenodd" clip-rule="evenodd" d="M29.1373 43.755C28.9886 43.8799 28.7821 43.91 28.604 43.8329L28.5073 43.791L28.2413 43.6758L28.1446 43.6339C27.9664 43.5567 27.8472 43.3855 27.8365 43.1917L27.3337 34.0291C27.3207 33.7928 27.4726 33.5805 27.6936 33.4957C29.956 32.6274 31.4029 30.3558 32.0202 28.9243C32.1387 28.6494 32.4561 28.5094 32.7308 28.6284L34.4379 29.3677L34.704 29.4829L36.4112 30.2223C36.6858 30.3413 36.8008 30.6685 36.6814 30.943C36.0597 32.3726 35.3926 34.982 36.3071 37.2261C36.3964 37.4454 36.3455 37.7013 36.1642 37.8536L29.1373 43.755Z" fill="url(#paint2_linear_6868_34811)" fill-opacity="0.2"/>
<path fill-rule="evenodd" clip-rule="evenodd" d="M29.1373 43.755C28.9886 43.8799 28.7821 43.91 28.604 43.8329L28.5073 43.791L28.2413 43.6758L28.1446 43.6339C27.9664 43.5567 27.8472 43.3855 27.8365 43.1917L27.3337 34.0291C27.3207 33.7928 27.4726 33.5805 27.6936 33.4957C29.956 32.6274 31.4029 30.3558 32.0202 28.9243C32.1387 28.6494 32.4561 28.5094 32.7308 28.6284L34.4379 29.3677L34.704 29.4829L36.4112 30.2223C36.6858 30.3413 36.8008 30.6685 36.6814 30.943C36.0597 32.3726 35.3926 34.982 36.3071 37.2261C36.3964 37.4454 36.3455 37.7013 36.1642 37.8536L29.1373 43.755Z" stroke="#DDDEE4" stroke-width="0.563687"/>
<path fill-rule="evenodd" clip-rule="evenodd" d="M29.1373 43.755C28.9886 43.8799 28.7821 43.91 28.604 43.8329L28.5073 43.791L28.2413 43.6758L28.1446 43.6339C27.9664 43.5567 27.8472 43.3855 27.8365 43.1917L27.3337 34.0291C27.3207 33.7928 27.4726 33.5805 27.6936 33.4957C29.956 32.6274 31.4029 30.3558 32.0202 28.9243C32.1387 28.6494 32.4561 28.5094 32.7308 28.6284L34.4379 29.3677L34.704 29.4829L36.4112 30.2223C36.6858 30.3413 36.8008 30.6685 36.6814 30.943C36.0597 32.3726 35.3926 34.982 36.3071 37.2261C36.3964 37.4454 36.3455 37.7013 36.1642 37.8536L29.1373 43.755Z" stroke="black" stroke-opacity="0.2" stroke-width="0.563687"/>
<rect x="37.5726" y="30.8327" width="6.48102" height="3.57429" rx="0.538179" transform="rotate(-156.583 37.5726 30.8327)" fill="#333236"/>
<rect x="37.5726" y="30.8327" width="6.48102" height="3.57429" rx="0.538179" transform="rotate(-156.583 37.5726 30.8327)" stroke="#333236" stroke-width="0.563687"/>
<rect x="37.5726" y="30.8327" width="6.48102" height="3.57429" rx="0.538179" transform="rotate(-156.583 37.5726 30.8327)" stroke="black" stroke-opacity="0.2" stroke-width="0.563687"/>
<path d="M28.4349 43.5644L30.4058 39.0423" stroke="#4A494F" stroke-width="0.563687"/>
<rect width="2.21479" height="2.21479" rx="1.10739" transform="matrix(0.917637 0.39742 0.39742 -0.917637 29.2808 38.8566)" fill="#4A494F"/>
</g>
<defs>
<linearGradient id="paint0_linear_6868_34811" x1="18.8986" y1="22.3158" x2="24.5748" y2="76.1177" gradientUnits="userSpaceOnUse">
<stop stop-color="white" stop-opacity="0"/>
<stop offset="1" stop-color="white"/>
</linearGradient>
<linearGradient id="paint1_linear_6868_34811" x1="44.2439" y1="7.38733" x2="35.7699" y2="26.9537" gradientUnits="userSpaceOnUse">
<stop stop-color="white"/>
<stop offset="0.570135" stop-color="white" stop-opacity="0"/>
</linearGradient>
<linearGradient id="paint2_linear_6868_34811" x1="32.7956" y1="33.4144" x2="26.049" y2="48.914" gradientUnits="userSpaceOnUse">
<stop stop-opacity="0"/>
<stop offset="0.688286" stop-color="#7C7C7C"/>
</linearGradient>
<clipPath id="clip0_6868_34811">
<rect x="-0.00390625" width="48.0029" height="48.0029" rx="4.50204" fill="white"/>
</clipPath>
</defs>
</svg>
